<mxfile host="app.diagrams.net" modified="2020-11-22T02:18:02.262Z" agent="5.0 (Windows NT 10.0; Win64; x64) AppleWebKit/537.36 (KHTML, like Gecko) Chrome/86.0.4240.198 Safari/537.36 Edg/86.0.622.69" etag="UR2Enl7EI57MK83NvlC5" version="13.10.0" type="github">
  <diagram id="BGPCx9dadZ-7ivj6pplK" name="Page-1">
    <mxGraphModel dx="375" dy="422" grid="1" gridSize="10" guides="1" tooltips="1" connect="1" arrows="1" fold="1" page="1" pageScale="1" pageWidth="850" pageHeight="1100" math="0" shadow="0">
      <root>
        <mxCell id="0" />
        <mxCell id="1" parent="0" />
        <mxCell id="wkn7H324SMXfmXS57X0A-1" value="&lt;font style=&quot;font-size: 14px&quot;&gt;Quan Lý&lt;/font&gt;" style="shape=umlActor;verticalLabelPosition=bottom;verticalAlign=top;html=1;outlineConnect=0;" vertex="1" parent="1">
          <mxGeometry x="110" y="370" width="30" height="100" as="geometry" />
        </mxCell>
        <mxCell id="wkn7H324SMXfmXS57X0A-2" value="" style="shape=umlLifeline;participant=umlBoundary;perimeter=lifelinePerimeter;whiteSpace=wrap;html=1;container=1;collapsible=0;recursiveResize=0;verticalAlign=top;spacingTop=36;outlineConnect=0;" vertex="1" parent="1">
          <mxGeometry x="270" y="450" width="100" height="300" as="geometry" />
        </mxCell>
        <mxCell id="wkn7H324SMXfmXS57X0A-3" value="" style="shape=umlLifeline;participant=umlControl;perimeter=lifelinePerimeter;whiteSpace=wrap;html=1;container=1;collapsible=0;recursiveResize=0;verticalAlign=top;spacingTop=36;outlineConnect=0;" vertex="1" parent="1">
          <mxGeometry x="470" y="450" width="75" height="300" as="geometry" />
        </mxCell>
        <mxCell id="wkn7H324SMXfmXS57X0A-4" value="" style="shape=umlLifeline;participant=umlEntity;perimeter=lifelinePerimeter;whiteSpace=wrap;html=1;container=1;collapsible=0;recursiveResize=0;verticalAlign=top;spacingTop=36;outlineConnect=0;" vertex="1" parent="1">
          <mxGeometry x="670" y="450" width="80" height="300" as="geometry" />
        </mxCell>
        <mxCell id="wkn7H324SMXfmXS57X0A-5" value="" style="html=1;points=[];perimeter=orthogonalPerimeter;" vertex="1" parent="1">
          <mxGeometry x="120" y="500" width="10" height="260" as="geometry" />
        </mxCell>
        <mxCell id="wkn7H324SMXfmXS57X0A-6" value="&lt;font style=&quot;font-size: 14px&quot;&gt;1.Yêu cầu xem hóa đơn&lt;/font&gt;" style="html=1;verticalAlign=bottom;startArrow=circle;startFill=1;endArrow=open;startSize=6;endSize=8;" edge="1" parent="1" target="wkn7H324SMXfmXS57X0A-2">
          <mxGeometry width="80" relative="1" as="geometry">
            <mxPoint x="130" y="540" as="sourcePoint" />
            <mxPoint x="210" y="540" as="targetPoint" />
          </mxGeometry>
        </mxCell>
        <mxCell id="wkn7H324SMXfmXS57X0A-7" value="&lt;font style=&quot;font-size: 14px&quot;&gt;2.Hiển thị hình ảnh &lt;br&gt;quản lý hóa đơn&lt;/font&gt;" style="html=1;verticalAlign=bottom;startArrow=circle;startFill=1;endArrow=open;startSize=6;endSize=8;" edge="1" parent="1" target="wkn7H324SMXfmXS57X0A-2">
          <mxGeometry width="80" relative="1" as="geometry">
            <mxPoint x="130" y="610" as="sourcePoint" />
            <mxPoint x="210" y="610" as="targetPoint" />
          </mxGeometry>
        </mxCell>
        <mxCell id="wkn7H324SMXfmXS57X0A-8" value="&lt;font style=&quot;font-size: 14px&quot;&gt;3.Phân chia hàng cho &lt;br&gt;các hóa&amp;nbsp; đợn&lt;/font&gt;" style="html=1;verticalAlign=bottom;startArrow=circle;startFill=1;endArrow=open;startSize=6;endSize=8;" edge="1" parent="1" target="wkn7H324SMXfmXS57X0A-2">
          <mxGeometry width="80" relative="1" as="geometry">
            <mxPoint x="130" y="670" as="sourcePoint" />
            <mxPoint x="210" y="670" as="targetPoint" />
          </mxGeometry>
        </mxCell>
        <mxCell id="wkn7H324SMXfmXS57X0A-9" value="&lt;font style=&quot;font-size: 14px&quot;&gt;4.Xử lý đơn hàng&lt;/font&gt;" style="html=1;verticalAlign=bottom;startArrow=circle;startFill=1;endArrow=open;startSize=6;endSize=8;" edge="1" parent="1" target="wkn7H324SMXfmXS57X0A-3">
          <mxGeometry x="0.0695" width="80" relative="1" as="geometry">
            <mxPoint x="320" y="700" as="sourcePoint" />
            <mxPoint x="400" y="700" as="targetPoint" />
            <mxPoint as="offset" />
          </mxGeometry>
        </mxCell>
        <mxCell id="wkn7H324SMXfmXS57X0A-10" value="&lt;font style=&quot;font-size: 14px&quot;&gt;5.Chuyển giao cho bộ&lt;br&gt;phận giao hàng&lt;/font&gt;" style="html=1;verticalAlign=bottom;endArrow=block;" edge="1" parent="1" source="wkn7H324SMXfmXS57X0A-3" target="wkn7H324SMXfmXS57X0A-4">
          <mxGeometry x="0.116" width="80" relative="1" as="geometry">
            <mxPoint x="510" y="660" as="sourcePoint" />
            <mxPoint x="660" y="720" as="targetPoint" />
            <Array as="points">
              <mxPoint x="680" y="740" />
            </Array>
            <mxPoint as="offset" />
          </mxGeometry>
        </mxCell>
        <mxCell id="wkn7H324SMXfmXS57X0A-11" value="&lt;font style=&quot;font-size: 14px&quot;&gt;Form quản lý đơn&lt;/font&gt;" style="text;html=1;align=center;verticalAlign=middle;resizable=0;points=[];autosize=1;" vertex="1" parent="1">
          <mxGeometry x="250" y="410" width="130" height="20" as="geometry" />
        </mxCell>
        <mxCell id="wkn7H324SMXfmXS57X0A-12" value="&lt;font style=&quot;font-size: 14px&quot;&gt;Controller hóa đơn&lt;/font&gt;" style="text;html=1;align=center;verticalAlign=middle;resizable=0;points=[];autosize=1;" vertex="1" parent="1">
          <mxGeometry x="442.5" y="420" width="130" height="20" as="geometry" />
        </mxCell>
        <mxCell id="wkn7H324SMXfmXS57X0A-13" value="&lt;font style=&quot;font-size: 14px&quot;&gt;Giao hàng&lt;/font&gt;" style="text;html=1;align=center;verticalAlign=middle;resizable=0;points=[];autosize=1;" vertex="1" parent="1">
          <mxGeometry x="670" y="420" width="80" height="20" as="geometry" />
        </mxCell>
        <mxCell id="wkn7H324SMXfmXS57X0A-14" value="&lt;font style=&quot;font-size: 14px&quot;&gt;Sequence Quản Lý Hóa Đơn&lt;/font&gt;" style="shape=umlFrame;whiteSpace=wrap;html=1;width=190;height=30;" vertex="1" parent="1">
          <mxGeometry x="80" y="330" width="700" height="510" as="geometry" />
        </mxCell>
      </root>
    </mxGraphModel>
  </diagram>
</mxfile>
